<svg xmlns="http://www.w3.org/2000/svg" width="40" height="40" viewBox="900 480 550 550">
  <path fill-rule="evenodd" fill="hsl(199,60%,55%)" fill-opacity="1" d="M 1126.53125 995.847656 L 923.097656 792.4375 C 900.222656 769.566406 900.222656 732.480469 923.097656 709.609375 C 945.972656 686.734375 983.054688 686.734375 1005.910156 709.609375 L 1113.328125 817.035156 L 1113.328125 542.734375 C 1113.328125 512.066406 1138.421875 487 1169.070312 487 C 1199.738281 487 1224.820312 512.0625 1224.820312 542.734375 L 1224.820312 814.722656 L 1330.691406 708.878906 C 1353.539062 686.003906 1390.621094 686.003906 1413.488281 708.878906 C 1424.921875 720.304688 1430.640625 735.28125 1430.640625 750.28125 C 1430.640625 765.261719 1424.921875 780.257812 1413.488281 791.683594 L 1209.328125 995.847656 C 1186.460938 1018.722656 1149.378906 1018.71875 1126.53125 995.847656 "></path>
</svg>