<?xml version="1.0" encoding="UTF-8" standalone="no"?>
<svg
   version="1.1"
   id="Layer_1"
   x="0px"
   y="0px"
   width="100%"
   viewBox="0 0 738 642"
   enable-background="new 0 0 738 642"
   xml:space="preserve"
   sodipodi:docname="06651517-de41-4c59-971d-f774f9f1929d.svg"
   inkscape:version="1.3.2 (091e20e, 2023-11-25, custom)"
   xmlns:inkscape="http://www.inkscape.org/namespaces/inkscape"
   xmlns:sodipodi="http://sodipodi.sourceforge.net/DTD/sodipodi-0.dtd"
   xmlns="http://www.w3.org/2000/svg"
   xmlns:svg="http://www.w3.org/2000/svg"><defs
   id="defs3" /><sodipodi:namedview
   id="namedview3"
   pagecolor="#ffffff"
   bordercolor="#000000"
   borderopacity="0.25"
   inkscape:showpageshadow="2"
   inkscape:pageopacity="0.0"
   inkscape:pagecheckerboard="0"
   inkscape:deskcolor="#d1d1d1"
   showgrid="false"
   inkscape:zoom="1.2102804"
   inkscape:cx="328.43629"
   inkscape:cy="321"
   inkscape:window-width="1920"
   inkscape:window-height="991"
   inkscape:window-x="-9"
   inkscape:window-y="-9"
   inkscape:window-maximized="1"
   inkscape:current-layer="Layer_1" />


<path
   fill="#EAEAEA"
   opacity="1.000000"
   stroke="hsl(199,60%,55%)"
   stroke-width="15"
   d=" M230.627625,105.320213   C231.539795,102.755829 232.346725,100.568581 233.122894,98.370476   C235.283005,92.253082 237.115067,91.030197 243.386917,92.653198   C244.835236,93.027985 246.253143,95.138779 246.896057,96.763008   C255.722717,119.062508 264.408997,141.417572 273.138153,163.755692   C273.676147,165.132416 274.284729,166.481537 274.969543,168.101547   C345.547791,106.633904 423.237762,93.618439 507.600616,135.234406   C551.172791,156.728439 580.747314,191.999802 597.566162,237.878540   C589.413818,240.227280 588.261841,239.562714 585.111389,232.658188   C555.939636,168.724594 505.990784,132.148926 436.810638,122.981232   C377.722321,115.150909 326.907990,134.467468 283.506897,174.648087   C280.046570,177.851624 279.471832,180.510941 281.205292,184.944046   C318.686218,280.795837 355.998474,376.713531 393.353546,472.614532   C399.216461,487.666260 405.252960,502.652161 410.925873,517.774780   C412.226685,521.242432 414.029724,522.187805 417.524567,522.083496   C450.853394,521.088684 481.407593,510.956390 509.512299,493.511780   C550.286682,468.203094 579.761230,433.659332 594.071350,387.209991   C595.718567,381.863342 596.795471,376.341034 598.319336,370.160004   C537.600952,370.160004 477.697113,370.160004 417.394714,370.160004   C417.394714,366.863739 417.394714,364.143646 417.394714,360.995514   C481.359131,360.995514 545.404602,360.995514 610.807251,360.995514   C608.632385,370.655243 607.067200,380.122253 604.352112,389.247131   C589.644775,438.675323 557.834412,474.633026 514.712036,501.320679   C485.626801,519.320862 454.174774,530.440613 419.733276,532.157410   C418.958954,532.195984 418.198853,532.519287 416.925293,532.835754   C424.524506,552.390442 432.021210,571.681396 439.561188,591.083679   C430.055237,592.707947 429.989105,592.733826 426.876923,584.772888   C400.197662,516.527771 373.498962,448.290161 346.894196,380.015961   C312.062744,290.630219 277.312561,201.212784 242.516266,111.813309   C241.986221,110.451477 241.312927,109.145401 240.706497,107.813301   C240.209351,107.724121 239.712204,107.634941 239.215073,107.545761   C210.124344,192.359619 181.033615,277.173462 151.679138,362.756287   C194.097351,362.756287 235.770721,362.756287 278.122711,362.756287   C278.122711,365.113892 277.995850,366.892548 278.152069,368.645966   C278.393921,371.360626 277.127899,372.053925 274.619324,372.050598   C229.120804,371.990265 183.622208,371.991089 138.123611,371.966034   C137.806656,371.965851 137.489792,371.787445 136.245560,371.413727   C167.677368,282.809296 199.092850,194.250839 230.627625,105.320213  z"
   id="path3"
   style="fill:hsl(199,60%,55%);fill-opacity:1" />
</svg>
