<svg id="visual" viewBox="0 0 900 600" width="900" height="600" xmlns="http://www.w3.org/2000/svg" xmlns:xlink="http://www.w3.org/1999/xlink" version="1.1"><rect x="0" y="0" width="900" height="600" fill="#001829"></rect><path d="M0 447L16.7 455.7C33.3 464.3 66.7 481.7 100 476C133.3 470.3 166.7 441.7 200 429.8C233.3 418 266.7 423 300 439.5C333.3 456 366.7 484 400 491.3C433.3 498.7 466.7 485.3 500 485.8C533.3 486.3 566.7 500.7 600 494C633.3 487.3 666.7 459.7 700 460C733.3 460.3 766.7 488.7 800 480.3C833.3 472 866.7 427 883.3 404.5L900 382L900 601L883.3 601C866.7 601 833.3 601 800 601C766.7 601 733.3 601 700 601C666.7 601 633.3 601 600 601C566.7 601 533.3 601 500 601C466.7 601 433.3 601 400 601C366.7 601 333.3 601 300 601C266.7 601 233.3 601 200 601C166.7 601 133.3 601 100 601C66.7 601 33.3 601 16.7 601L0 601Z" fill="#297EA6" stroke-linecap="round" stroke-linejoin="miter"></path></svg>