<svg xmlns="http://www.w3.org/2000/svg" version="1.1" xmlns:xlink="http://www.w3.org/1999/xlink" xmlns:svgjs="http://svgjs.dev/svgjs" viewBox="0 0 600 600"><path d="M444.1099450875382 450.00002220912785C477.4869032988013 404.319393750469 647.6439671008845 355.2356331710419 648.2984216500382 391.09950951381535C648.9528761991919 426.9633858565888 482.06808514287684 655.3665281498836 448.0366723824601 665.1832802657689C414.0052596220434 675.0000323816544 410.7329868762752 495.6806506677867 444.1099450875382 450.00002220912785C477.4869032988013 404.319393750469 647.6439671008845 355.2356331710419 648.2984216500382 391.09950951381535 " fill="#001829" fill-opacity="0.8"></path><path d="M138.61255334683995 443.717235685018C171.98951155810295 398.0366072263591 342.14657536018626 348.952846646932 342.80102990933995 384.81672298970545C343.45548445849363 420.68059933247883 176.5706934021785 649.0837416257723 142.53928064176182 658.9004937416573C108.50786788134513 668.717245857543 105.23559513557694 489.39786414367666 138.61255334683995 443.717235685018C171.98951155810295 398.0366072263591 342.14657536018626 348.952846646932 342.80102990933995 384.81672298970545 " fill-opacity="0.8" fill="#001829" opacity="1" stroke-opacity="1" stroke-width="0" stroke="hsl(340, 45%, 30%)" transform="matrix(-1.0000000000000002,3.885780586188048e-16,-3.885780586188048e-16,-1.0000000000000002,283.29053497314464,607.2639617919922)"></path><defs></defs></svg>